<?xml version="1.0" standalone="no"?>
<!DOCTYPE svg PUBLIC "-//W3C//DTD SVG 20010904//EN"
 "http://www.w3.org/TR/2001/REC-SVG-20010904/DTD/svg10.dtd">
<svg version="1.0" xmlns="http://www.w3.org/2000/svg"
 width="1024.000000pt" height="1536.000000pt" viewBox="0 0 1024.000000 1536.000000"
 preserveAspectRatio="xMidYMid meet">

<g transform="translate(0.000000,1536.000000) scale(0.100000,-0.100000)"
fill="#000000" stroke="none">
<path d="M5060 14994 c-256 -29 -469 -75 -645 -139 -444 -161 -759 -353 -1064
-650 -372 -362 -634 -791 -706 -1155 -48 -242 -23 -445 74 -604 28 -47 41 -82
50 -142 37 -230 120 -403 270 -563 l41 -44 -24 -31 c-27 -36 -114 -87 -166
-97 l-35 -7 38 -1 c48 -1 133 29 189 67 l44 30 31 -19 31 -19 -39 -91 c-56
-129 -89 -251 -96 -349 -13 -195 79 -377 225 -445 20 -10 63 -42 94 -72 65
-61 197 -129 268 -138 l45 -5 -42 14 c-153 51 -278 207 -319 399 -30 145 -9
270 80 469 14 32 32 74 41 94 l15 37 41 -54 c49 -66 101 -122 145 -156 31 -23
34 -30 34 -75 0 -97 45 -158 118 -158 53 0 82 14 82 40 0 36 16 21 46 -42 97
-207 351 -447 671 -635 118 -70 132 -81 133 -105 0 -19 -5 -28 -16 -28 -30 0
-202 -88 -296 -151 -68 -46 -144 -114 -285 -256 l-192 -194 -98 -29 c-54 -17
-186 -48 -293 -70 -246 -51 -350 -79 -475 -129 -86 -34 -107 -48 -148 -93 -95
-104 -165 -231 -220 -403 -56 -173 -88 -382 -102 -672 -4 -72 -10 -146 -14
-165 -7 -30 -9 -26 -20 42 -7 41 -19 104 -26 140 -12 56 -11 73 2 130 26 102
23 352 -4 455 -32 119 -89 246 -156 349 -33 50 -85 136 -115 191 -30 55 -76
129 -103 165 -26 35 -74 120 -105 188 -63 134 -81 150 -133 120 -33 -19 -81
-111 -81 -155 0 -18 -3 -33 -7 -33 -5 1 -39 51 -77 113 -322 520 -305 495
-387 569 -43 38 -96 93 -117 122 -44 58 -86 86 -103 69 -14 -14 77 -319 119
-403 16 -30 88 -148 160 -262 73 -114 132 -210 132 -213 0 -3 -24 -5 -52 -5
-72 0 -126 -31 -155 -90 -28 -54 -29 -84 -4 -158 20 -58 25 -134 19 -252 -3
-48 -13 -84 -37 -135 -46 -96 -51 -117 -40 -167 9 -37 7 -49 -13 -88 -57 -111
-19 -204 173 -429 135 -156 254 -268 351 -328 52 -32 59 -41 92 -117 58 -136
97 -307 136 -596 l19 -144 -53 -61 c-103 -119 -158 -218 -197 -361 -17 -62
-20 -98 -17 -184 3 -103 5 -110 49 -201 32 -65 50 -117 59 -169 28 -179 79
-263 192 -320 61 -30 62 -32 93 -108 48 -121 99 -203 176 -286 84 -90 233
-205 339 -261 68 -36 82 -40 150 -40 64 0 83 4 128 30 119 65 329 282 404 417
56 101 69 139 113 332 51 219 53 224 54 145 1 -37 -6 -86 -14 -109 -28 -78
-13 -164 37 -217 l21 -23 -23 -25 c-22 -23 -22 -29 -14 -97 13 -109 9 -252
-10 -347 -9 -46 -16 -85 -16 -86 0 -2 -18 -25 -41 -51 -34 -40 -40 -53 -36
-80 4 -26 1 -35 -24 -53 -21 -15 -29 -30 -29 -51 0 -23 -14 -45 -55 -90 -260
-283 -616 -924 -803 -1445 -267 -748 -336 -1449 -216 -2208 50 -318 165 -787
281 -1144 l47 -143 2287 0 c2170 0 2288 1 2293 18 139 464 244 1008 277 1434
24 315 4 696 -52 1018 -95 543 -329 1163 -617 1630 -110 178 -332 494 -449
638 -50 63 -54 78 -14 58 16 -9 74 -23 129 -33 l100 -17 5 -47 c8 -66 61 -188
119 -275 90 -135 244 -249 401 -299 89 -29 154 -31 264 -11 43 8 109 19 147
25 143 21 229 88 335 261 118 191 150 287 158 465 4 115 3 127 -34 274 -39
152 -39 153 -19 162 32 13 204 57 369 94 l147 33 102 89 c360 312 714 653 980
941 135 147 168 188 168 211 0 45 -18 53 -83 34 -70 -20 -72 -18 -126 92 -31
65 -47 86 -66 91 -27 7 -342 -9 -645 -32 -427 -32 -699 -88 -925 -189 -75 -34
-172 -91 -205 -121 l-25 -23 -2 137 c-2 113 4 188 37 427 22 160 45 334 52
387 l13 97 70 -30 c38 -16 76 -29 83 -29 29 0 -9 29 -79 61 -66 30 -69 34 -69
66 0 38 0 38 67 -13 74 -57 144 -78 258 -77 153 0 249 39 353 144 51 51 76 94
69 119 -3 11 12 38 40 72 83 100 134 237 132 353 -1 57 -1 58 -10 22 -20 -86
-76 -159 -153 -200 -33 -17 -58 -22 -126 -22 -74 0 -91 3 -130 27 -83 49 -129
116 -132 195 -3 77 26 124 109 179 55 37 60 38 153 40 103 2 192 27 293 81 72
39 187 155 230 233 126 231 95 460 -90 660 -78 84 -157 141 -299 217 l-109 58
51 6 c64 8 154 48 211 95 46 37 117 167 128 234 4 28 -1 21 -32 -38 -56 -107
-119 -174 -206 -216 -92 -46 -169 -56 -233 -31 -25 9 -43 19 -41 21 2 2 38 8
80 14 177 22 320 135 379 298 30 82 29 207 -2 286 -38 99 -141 186 -217 186
-26 0 -26 -2 12 -19 47 -22 99 -74 114 -114 18 -46 13 -143 -8 -185 -87 -168
-310 -203 -492 -76 -74 51 -136 174 -144 288 l-5 61 20 -74 c11 -41 31 -93 44
-116 57 -97 186 -179 281 -179 59 0 111 25 127 60 17 37 2 40 -31 5 -25 -27
-36 -31 -80 -31 -99 0 -207 73 -264 179 -38 68 -60 187 -52 276 9 105 23 144
74 215 207 287 264 483 212 735 -32 155 -105 303 -242 492 -33 45 -68 106 -78
135 -42 121 -134 276 -220 370 -29 32 -86 79 -127 104 -65 42 -74 51 -74 77 0
19 11 42 31 65 56 64 83 136 87 237 9 204 -79 441 -269 723 -303 448 -437 597
-688 760 -214 139 -353 188 -510 180 -53 -3 -98 -11 -118 -21 l-32 -17 -20 34
c-70 113 -218 188 -456 231 -86 16 -497 29 -585 19z m-1554 -746 c-167 -167
-279 -297 -363 -423 -224 -336 -360 -779 -382 -1245 l-7 -145 -27 59 c-46 100
-60 170 -61 301 0 185 40 357 131 559 133 296 370 620 617 845 69 63 256 220
263 221 1 0 -76 -78 -171 -172z m674 -38 c0 -5 -5 -10 -11 -10 -5 0 -7 5 -4
10 3 6 8 10 11 10 2 0 4 -4 4 -10z m154 -115 c25 -19 35 -22 44 -13 7 7 12 9
12 5 0 -5 -103 -93 -195 -166 -18 -15 -19 -15 -7 0 10 14 9 17 -8 22 -17 4
-19 9 -10 32 12 32 13 45 2 27 -6 -9 -12 -6 -20 13 -11 24 -10 25 7 15 24 -12
34 -13 27 -1 -8 12 37 8 46 -4 4 -6 8 -1 8 9 0 11 3 16 7 13 9 -10 34 14 26
26 -3 5 -1 7 5 3 6 -3 13 -2 16 3 3 5 -4 12 -17 15 -21 7 -21 7 -2 16 11 5 21
9 23 9 2 1 18 -10 36 -24z m212 -85 c1 -16 -2 -31 -7 -31 -5 -1 -12 -2 -16 -3
-14 -2 -77 -49 -115 -84 -42 -40 -68 -36 -42 6 18 30 104 103 150 127 16 8 29
15 29 15 0 0 1 -13 1 -30z m4 -57 l-22 -28 29 -5 c27 -5 23 -9 -72 -80 -95
-70 -125 -88 -125 -71 0 4 9 17 21 29 11 12 17 26 14 31 -11 19 125 137 173
150 2 1 -6 -11 -18 -26z m149 -42 c10 -6 0 -19 -40 -48 -30 -22 -74 -59 -99
-81 -46 -42 -64 -50 -75 -32 -4 6 -12 8 -18 4 -30 -14 90 89 144 125 66 44 67
45 88 32z m130 -35 c-2 -2 -15 -9 -29 -15 -24 -11 -24 -11 -6 3 16 13 49 24
35 12z m34 -73 c-9 -28 -35 -53 -45 -47 -5 4 3 19 18 35 32 34 36 35 27 12z
m1654 -28 c12 -9 20 -22 17 -30 -7 -18 -29 -9 -49 21 -18 29 -2 33 32 9z
m1041 -187 c144 -284 175 -487 97 -643 -35 -70 -53 -91 -65 -79 -8 8 -7 20 1
40 21 50 17 353 -5 453 -24 110 -66 250 -100 328 -56 132 -22 85 72 -99z
m-2043 135 c33 -8 65 -16 70 -17 6 -1 15 -5 21 -9 7 -4 17 0 24 8 16 20 30 19
30 -1 0 -13 6 -15 33 -10 118 25 239 35 207 17 -8 -5 -32 -11 -53 -15 -46 -9
-39 -26 10 -26 51 0 158 -28 219 -56 119 -56 194 -163 253 -363 41 -137 78
-238 102 -279 10 -19 17 -37 15 -41 -6 -9 10 -36 21 -36 4 0 38 -30 75 -68 37
-37 64 -67 60 -67 -11 0 -62 48 -100 95 -43 53 -41 38 3 -24 30 -42 114 -121
128 -121 3 0 7 10 10 22 5 16 -6 34 -40 72 -65 72 -99 126 -145 224 -37 78
-72 182 -62 182 2 0 17 -27 34 -61 47 -92 112 -189 178 -266 61 -71 62 -73
108 -238 18 -66 33 -165 24 -165 -3 0 -10 4 -15 9 -10 10 -210 53 -307 67 -51
7 -56 11 -35 34 6 8 3 7 -9 -3 -34 -28 -102 -22 -185 18 -67 31 -222 66 -235
52 -3 -2 26 -9 63 -15 37 -5 93 -21 123 -35 l55 -25 -120 5 c-133 5 -166 -1
-370 -73 -187 -65 -281 -113 -403 -207 l-53 -40 -127 -8 c-147 -8 -176 -5
-215 28 -71 58 -263 152 -347 168 -19 4 -71 22 -115 40 -98 40 -124 46 -245
54 l-95 6 55 20 c38 13 81 19 140 19 50 0 75 3 60 7 -14 4 -61 8 -105 8 -50 1
-75 5 -66 10 11 7 9 10 -9 16 -22 7 -22 8 11 33 19 15 60 51 91 80 l57 54 63
-25 c35 -14 113 -46 173 -71 99 -41 155 -56 155 -41 0 3 -11 27 -24 53 -40 78
-131 154 -218 181 l-37 12 38 57 c22 31 58 97 82 146 73 154 290 496 328 515
9 5 57 22 106 39 90 30 302 60 345 49 27 -7 25 7 -2 21 -32 16 86 5 167 -15z
m946 -220 c13 -16 12 -17 -3 -4 -17 13 -22 21 -14 21 2 0 10 -8 17 -17z
m-1962 -450 c-50 -83 -78 -120 -93 -120 -11 0 -6 12 17 41 18 23 46 58 63 78
37 48 42 48 13 1z m-249 -273 c-12 -23 -158 -153 -192 -171 -12 -7 -45 -29
-73 -50 -35 -26 -71 -42 -119 -53 -38 -9 -70 -15 -72 -13 -1 1 36 24 84 51
122 68 175 105 267 185 80 69 127 93 105 51z m3487 -209 c26 -21 60 -51 74
-67 29 -32 109 -148 109 -158 0 -17 -20 -1 -54 44 -21 27 -76 88 -123 135 -89
88 -92 115 -6 46z m-4738 -285 c6 -27 9 -51 7 -54 -3 -2 -20 1 -37 8 l-32 14
6 120 c3 67 12 139 19 161 12 39 13 36 19 -80 3 -66 11 -142 18 -169z m3226
88 c71 -39 108 -75 129 -126 21 -49 20 -91 -5 -158 -34 -93 -34 -93 -1 -60 17
17 53 68 81 113 27 45 65 97 85 116 33 32 36 33 43 15 4 -10 8 -68 7 -129 -2
-194 -54 -344 -156 -451 -98 -103 -214 -143 -434 -151 -235 -9 -344 20 -450
120 -50 46 -74 79 -104 142 -38 78 -55 130 -24 73 15 -28 54 -56 54 -40 0 19
-53 103 -73 117 -19 13 -22 27 -25 105 -5 106 14 156 80 216 39 35 185 110
196 100 2 -3 -8 -26 -23 -51 -34 -59 -75 -179 -74 -219 0 -26 3 -22 23 29 29
78 67 137 123 191 50 49 74 58 48 18 -56 -86 -73 -249 -34 -334 30 -67 65
-107 122 -141 l52 -30 -75 5 -75 6 50 -16 c84 -25 240 -29 344 -9 62 12 91 22
91 31 0 17 118 74 153 74 40 0 41 16 1 39 l-36 22 -43 -40 c-49 -45 -87 -67
-154 -87 -67 -20 -95 -18 -46 5 116 53 175 190 145 336 -15 74 -40 124 -88
177 l-37 41 35 -8 c19 -4 62 -22 95 -41z m275 6 c0 -13 -57 -13 -65 0 -4 6 -4
18 -1 26 5 13 9 13 36 -1 16 -8 30 -20 30 -25z m-2260 11 c0 -5 -9 -12 -20
-16 -33 -10 -104 -99 -125 -156 -55 -150 10 -324 148 -394 l52 -27 -55 5
c-140 13 -259 96 -298 208 -33 96 -37 140 -18 197 33 98 142 165 309 191 4 0
7 -3 7 -8z m-434 -45 c12 -13 10 -15 -17 -21 -38 -9 -50 2 -25 21 24 17 24 17
42 0z m3365 -8 c75 -50 116 -199 98 -358 -12 -106 -55 -215 -128 -326 -62 -94
-213 -257 -249 -269 -20 -6 -21 -11 -16 -64 8 -72 -7 -122 -47 -156 -39 -32
-88 -33 -124 -2 -20 17 -27 34 -32 80 -5 47 -3 57 10 57 17 0 27 -21 27 -59 0
-34 26 -71 49 -71 10 0 26 9 37 21 27 30 28 197 1 227 -12 13 -14 22 -8 26 14
9 46 -9 65 -36 9 -12 16 -18 16 -12 0 18 -32 55 -56 64 -46 18 -72 -13 -39
-46 8 -9 15 -29 15 -45 l0 -29 -68 0 c-41 0 -75 5 -86 13 -17 13 -18 16 -2 69
20 71 20 81 0 70 -9 -5 -36 -60 -59 -123 -90 -244 -151 -346 -289 -488 -151
-156 -342 -299 -636 -477 -236 -142 -317 -174 -451 -174 -41 0 -100 7 -130 16
-159 47 -582 307 -794 488 -249 212 -358 395 -441 746 -14 58 -28 114 -31 124
-4 15 6 10 38 -18 150 -129 422 -173 674 -111 209 52 342 197 426 463 31 98
34 104 72 123 55 29 135 27 189 -3 37 -20 46 -32 68 -93 78 -210 192 -355 326
-416 108 -49 182 -62 349 -63 126 0 163 4 230 23 117 33 193 73 267 140 99 91
153 206 213 451 26 108 49 152 80 159 17 3 18 -5 12 -125 -7 -132 -16 -198
-43 -317 -9 -37 -14 -70 -11 -74 13 -12 62 57 109 152 33 68 58 140 79 225 29
122 31 126 78 171 74 70 151 87 212 47z m-2548 1 c12 -6 32 -23 45 -37 13 -16
20 -20 16 -9 -9 24 5 21 57 -11 52 -34 96 -83 117 -132 17 -41 12 -218 -7
-260 -10 -23 -11 -22 -5 10 4 25 3 32 -5 25 -15 -15 -27 -80 -13 -71 8 4 7 -6
-2 -32 -43 -121 -126 -219 -223 -263 -155 -71 -433 -77 -596 -12 -112 44 -215
148 -231 233 -34 168 -47 261 -53 355 l-6 110 38 -35 c20 -19 61 -71 90 -115
29 -44 65 -91 79 -104 32 -30 32 -35 1 -49 -31 -14 -33 -32 -4 -32 26 0 144
-77 144 -93 0 -32 189 -62 297 -49 73 10 188 39 188 48 0 3 -21 3 -47 -1 -47
-6 -48 -6 -18 8 44 21 95 76 119 127 31 69 28 185 -7 270 -18 45 -21 58 -9 44
56 -69 75 -97 103 -145 28 -50 30 -52 24 -19 -9 47 -69 166 -105 207 -17 19
-30 36 -30 38 0 8 20 5 43 -6z m1502 -34 c30 -30 31 -54 4 -89 -25 -32 -59
-33 -86 -3 -30 33 -34 63 -11 92 25 32 62 32 93 0z m-1608 -64 c17 -11 34 -29
38 -40 14 -45 -40 -85 -83 -62 -31 17 -48 67 -32 97 16 29 35 30 77 5z m-1514
-36 c12 -1 34 -30 62 -83 24 -45 59 -102 78 -127 31 -39 34 -51 30 -88 -7 -58
-30 -127 -52 -156 l-18 -24 -32 47 c-63 91 -111 237 -126 385 -7 63 -7 63 16
55 13 -4 32 -8 42 -9z m5268 -469 c96 -248 75 -449 -77 -732 -31 -58 -58 -103
-61 -100 -3 2 4 33 16 68 37 115 63 269 68 408 6 160 -14 300 -73 500 -20 69
-39 136 -41 150 -8 41 134 -208 168 -294z m-2473 272 c-2 -13 -11 -24 -23 -27
-17 -3 -18 -1 -5 13 7 10 9 16 4 15 -5 -1 -16 -1 -24 0 -13 1 -13 2 0 11 28
18 52 12 48 -12z m-1603 -27 c7 -12 -12 -24 -25 -16 -11 7 -4 25 10 25 5 0 11
-4 15 -9z m-586 -136 c-3 -123 -1 -149 16 -188 20 -49 87 -121 125 -137 19 -8
33 -22 36 -39 4 -14 17 -66 29 -116 13 -49 21 -91 20 -93 -2 -2 -18 1 -36 6
-22 6 -33 14 -30 23 2 8 6 33 8 57 5 40 5 42 -22 42 -21 0 -29 -7 -38 -30 -6
-16 -18 -30 -25 -30 -20 0 -133 116 -176 182 l-38 57 17 45 c10 25 20 46 23
46 3 0 11 -8 19 -17 12 -16 12 -15 2 9 -9 22 -6 47 20 148 17 67 31 132 32
143 2 58 19 -45 18 -108z m856 46 c3 -6 -4 -15 -15 -21 -16 -8 -20 -8 -20 3 0
25 23 36 35 18z m-175 -13 c0 -4 -4 -8 -9 -8 -6 0 -12 4 -15 8 -3 5 1 9 9 9 8
0 15 -4 15 -9z m-1030 -94 c0 -32 -27 -100 -53 -132 -8 -10 -15 -8 -33 9 l-22
21 44 63 c24 34 44 68 44 74 0 7 5 9 10 6 6 -3 10 -22 10 -41z m412 -12 c-3
-9 -1 -13 5 -9 19 12 76 -92 81 -147 l5 -49 -29 26 c-16 15 -32 27 -36 27 -3
0 -16 19 -27 43 -25 51 -29 124 -7 124 8 0 12 -6 8 -15z m4207 -180 c1 -20 -1
-21 -13 -9 -14 13 -20 51 -16 92 3 24 28 -48 29 -83z m-4623 41 c-3 -27 -21
-98 -40 -158 -46 -150 -60 -246 -53 -363 6 -108 43 -235 91 -311 15 -23 25
-45 22 -48 -11 -11 -113 105 -139 157 -78 161 -57 377 63 639 28 59 50 113 50
120 0 6 3 11 6 11 4 0 4 -21 0 -47z m514 -253 c0 -6 -7 -27 -15 -47 -20 -48
-20 -142 1 -172 9 -13 31 -29 48 -37 29 -13 30 -13 6 -14 -68 -1 -127 79 -116
156 7 55 42 124 61 124 8 0 15 -5 15 -10z m50 -144 c37 -11 46 -18 48 -39 4
-36 -38 -65 -74 -49 -25 12 -44 48 -44 83 0 22 10 23 70 5z m-2459 -810 c40
-38 68 -71 61 -74 -23 -7 -32 8 165 -312 144 -235 190 -315 176 -307 -5 3 -36
48 -68 99 -32 51 -101 160 -153 241 -52 82 -104 171 -116 198 -15 35 -25 47
-36 42 -8 -3 -27 -8 -42 -11 -16 -2 -28 -10 -28 -18 0 -7 -9 -18 -19 -24 -18
-9 -22 -2 -52 89 -18 54 -29 106 -26 115 6 15 44 37 58 33 4 -1 40 -33 80 -71z
m4459 2 c-5 -18 -14 -80 -20 -137 -26 -259 -1 -438 76 -552 48 -72 50 -92 19
-185 -26 -79 -72 -170 -82 -161 -2 3 9 29 26 59 17 30 31 59 31 64 0 5 -13
-13 -28 -41 -15 -27 -47 -76 -70 -107 -23 -32 -42 -61 -41 -65 3 -19 -2 -27
-10 -15 -6 10 -11 9 -22 -4 -11 -14 -11 -16 0 -10 8 5 16 4 21 -4 5 -9 22 6
54 46 66 83 117 175 147 269 l27 80 7 -49 c11 -73 -1 -148 -45 -286 -41 -126
-144 -330 -219 -435 -80 -113 -200 -251 -387 -445 -108 -113 -237 -256 -287
-317 -49 -62 -91 -113 -92 -113 -1 0 0 42 3 93 2 50 2 89 -1 86 -7 -5 -52
-156 -59 -194 -2 -12 -45 61 -117 200 -63 121 -123 236 -135 255 -85 139 -195
435 -220 596 -25 159 -19 400 8 355 4 -6 13 -11 19 -11 7 0 1 9 -12 19 -21 16
-22 23 -16 62 17 104 77 196 153 233 28 14 52 24 52 22 0 -2 -7 -21 -16 -42
-41 -97 -8 -270 78 -418 105 -179 175 -252 336 -350 25 -16 40 -31 36 -38 -4
-6 -1 -9 7 -6 8 3 15 14 17 26 3 17 -1 20 -12 16 -22 -8 -132 64 -205 135
-105 102 -229 312 -252 429 -14 72 -8 177 12 213 18 32 51 69 60 69 5 0 -3
-12 -16 -26 -27 -29 -55 -105 -54 -143 0 -16 6 -6 13 26 16 64 36 96 77 120
33 19 64 73 95 163 16 46 19 84 18 233 0 97 1 177 3 177 1 0 55 -27 120 -60
65 -32 138 -64 163 -69 66 -15 187 -13 254 4 72 19 258 114 391 199 55 35 101
65 102 65 1 1 -3 -14 -7 -31z m177 -209 c109 -82 237 -236 383 -464 73 -115
191 -348 243 -480 64 -166 124 -414 142 -587 6 -59 4 -68 -10 -68 -14 0 -168
144 -381 357 -34 34 -86 75 -116 92 -119 69 -187 25 -282 -179 -19 -41 -50
-100 -69 -130 -20 -30 -34 -56 -32 -59 10 -9 59 61 97 139 58 116 113 202 139
219 30 18 90 16 130 -4 17 -10 86 -67 152 -129 243 -226 358 -326 372 -326 53
0 -32 420 -145 723 -34 89 -70 177 -80 195 -11 17 -18 32 -16 32 2 0 23 -11
48 -25 48 -27 148 -64 433 -161 104 -36 220 -78 258 -95 38 -16 74 -26 80 -22
6 4 7 1 2 -7 -6 -10 -4 -12 9 -7 11 5 15 3 10 -5 -5 -8 -2 -9 10 -5 9 4 14 3
11 -2 -3 -5 4 -12 15 -16 33 -10 140 -94 151 -118 5 -12 27 -44 48 -71 45 -56
93 -169 118 -279 9 -42 21 -73 27 -70 5 4 7 -1 3 -10 -3 -10 -2 -17 2 -17 5 0
14 -37 20 -82 16 -124 18 -148 12 -148 -3 0 -6 -109 -7 -243 0 -133 -6 -291
-12 -352 -6 -60 -16 -159 -22 -220 -6 -60 -19 -175 -30 -255 -69 -521 -72
-545 -65 -628 3 -49 2 -96 -4 -115 -6 -18 -12 -50 -13 -73 -3 -35 -11 -47 -63
-95 -80 -72 -152 -150 -195 -212 -19 -28 -40 -52 -46 -54 -6 -2 -25 19 -43 47
-100 154 -311 302 -573 400 -80 30 -88 35 -88 59 1 66 28 139 82 216 86 124
171 300 202 422 33 125 38 172 45 378 l8 210 67 139 c37 76 65 140 63 142 -2
2 -32 -50 -67 -116 -34 -66 -66 -117 -71 -114 -5 3 -10 22 -11 42 -1 20 -5
-53 -8 -163 -9 -241 -30 -383 -77 -530 -66 -205 -167 -377 -311 -526 -70 -74
-79 -94 -30 -68 11 6 22 8 25 6 8 -9 -17 -48 -27 -42 -20 12 -211 44 -340 56
-159 16 -738 16 -940 1 l-135 -10 -112 -117 -112 -118 -4 64 -4 64 0 -68 0
-68 -70 -87 c-39 -48 -94 -120 -124 -161 l-54 -75 -6 55 -7 54 1 -60 c1 -67
-8 -88 -84 -201 -55 -82 -125 -200 -193 -326 -26 -49 -53 -88 -60 -88 -7 0
-69 11 -138 25 -247 49 -400 116 -493 216 -63 69 -80 113 -71 190 17 154 17
190 3 275 -17 99 -101 373 -148 486 -47 112 -48 118 -9 83 l34 -30 -37 50
c-143 195 -222 350 -269 522 -26 98 -36 352 -19 475 17 114 58 269 93 351 24
56 30 84 32 160 2 53 0 79 -4 62 -4 -16 -8 -43 -9 -60 -1 -16 -6 -37 -11 -45
-9 -13 -11 -13 -21 0 -8 11 -9 9 -3 -10 11 -36 10 -40 -44 -210 -59 -184 -82
-316 -82 -474 0 -230 71 -452 221 -686 76 -120 167 -369 210 -576 16 -77 -5
-228 -60 -436 -61 -229 -118 -319 -329 -522 -149 -143 -219 -170 -344 -132
-132 39 -409 272 -486 407 -33 58 -44 101 -16 64 35 -48 128 -154 132 -151 2
2 -17 33 -42 68 -111 154 -126 176 -131 189 -4 12 19 14 132 14 124 0 147 3
228 28 241 76 478 249 607 445 51 76 57 73 98 -54 16 -49 29 -80 30 -69 0 11
-9 44 -20 73 -11 29 -23 81 -27 115 -6 57 -5 61 10 48 20 -16 22 -8 6 21 -6
12 -11 61 -10 114 2 104 -10 144 -61 208 -37 46 -88 166 -88 205 0 48 -39 182
-66 229 -61 103 -134 157 -251 183 -50 12 -53 14 -67 58 -26 82 -93 324 -109
396 -28 121 -29 133 -18 187 6 29 15 154 21 278 11 247 28 383 66 534 51 201
120 346 229 480 39 47 79 73 125 81 3 1 25 11 50 24 73 39 144 59 349 102 186
38 415 94 433 105 23 14 -2 -26 -110 -177 -127 -179 -258 -412 -321 -575 -47
-120 -55 -154 -40 -154 14 0 101 63 120 87 14 17 -16 -2 -71 -46 -54 -44 -51
-19 16 139 137 321 319 589 597 876 216 224 399 367 556 433 40 17 79 31 86
31 20 0 28 -73 23 -218 -4 -114 -7 -134 -33 -191 -28 -62 -31 -65 -101 -98
-40 -18 -82 -33 -94 -33 -13 0 -32 -16 -53 -46 -42 -60 -45 -39 -12 71 15 48
25 88 23 91 -8 7 -77 -194 -95 -277 -14 -67 -18 -127 -17 -294 0 -200 2 -216
31 -340 40 -164 106 -328 211 -520 105 -191 266 -517 282 -573 17 -55 24 -48
9 9 -11 43 -11 46 26 104 79 125 203 269 468 545 268 277 377 423 470 625 77
169 130 354 143 495 7 84 -8 231 -31 300 -13 40 -15 41 -10 10 3 -19 8 -78 11
-130 l5 -95 -50 53 c-69 73 -91 144 -91 297 0 61 3 140 6 173 l7 61 38 -19
c20 -11 68 -43 106 -71z m-3962 -426 c34 -67 82 -145 107 -175 25 -29 62 -87
83 -128 21 -41 64 -117 97 -167 77 -119 163 -309 189 -419 26 -110 28 -254 4
-398 -14 -87 -15 -120 -7 -160 6 -28 20 -103 32 -166 63 -349 164 -710 281
-1008 27 -69 49 -131 49 -139 0 -8 -12 -37 -26 -65 -87 -171 -416 -382 -640
-411 -51 -6 -44 -37 -79 348 -54 594 -98 856 -179 1068 -27 70 -27 71 19 80
14 2 8 7 -21 15 -74 22 -213 124 -329 244 -241 248 -306 341 -313 447 -3 49 1
62 26 99 44 65 121 141 149 148 26 7 166 -10 236 -27 49 -13 102 -61 132 -118
13 -25 44 -75 69 -110 25 -36 46 -69 46 -73 0 -16 -48 -8 -73 12 -17 14 -27
33 -30 58 l-4 37 -1 -36 c-2 -39 28 -89 54 -89 8 0 14 -4 14 -10 0 -16 -62
-11 -106 9 -22 10 -63 41 -90 69 l-50 51 -53 -14 c-29 -7 -64 -21 -78 -30 -14
-9 -41 -23 -61 -30 -21 -8 -29 -14 -20 -14 10 -1 47 11 83 26 36 14 68 24 71
20 4 -3 3 -27 -1 -53 -7 -46 -24 -70 -75 -107 -21 -15 -19 -15 15 2 22 10 49
28 59 40 11 12 25 21 33 21 7 0 13 3 13 8 0 4 11 12 25 18 24 12 38 6 47 -21
1 -5 6 -9 10 -8 4 2 23 -4 42 -12 61 -26 135 -20 191 16 42 27 47 33 34 43 -9
6 -25 30 -37 52 l-21 41 24 -2 c35 -4 122 39 130 65 9 29 15 22 93 -105 86
-142 116 -173 174 -184 26 -5 45 -5 42 0 -2 4 9 15 26 24 77 40 52 109 -167
468 -51 84 -69 133 -40 109 8 -7 18 -7 27 -2 9 6 10 10 3 10 -6 0 -26 16 -44
35 -19 19 -38 35 -44 35 -6 0 -33 37 -60 83 -26 45 -56 94 -67 109 -24 36 -23
43 4 24 25 -18 38 -20 38 -7 0 7 -36 22 -62 25 -10 1 -40 44 -93 131 -53 89
-67 155 -46 231 12 45 55 98 73 92 7 -3 40 -59 73 -125z m-376 -108 c73 -25
181 -95 231 -151 14 -16 18 -24 10 -18 -27 20 -60 23 -75 7 -36 -36 -2 -115
68 -159 l42 -26 -45 7 c-51 7 -159 54 -207 91 -17 13 -42 24 -55 25 -13 0 -54
8 -93 19 -76 19 -91 18 -57 -6 31 -21 28 -34 -17 -78 -41 -40 -51 -36 -51 22
0 14 -9 59 -21 100 l-20 73 23 47 c44 87 113 100 267 47z m4288 -7 c-3 -8 -6
-5 -6 6 -1 11 2 17 5 13 3 -3 4 -12 1 -19z m2629 -222 c104 -82 178 -170 223
-266 34 -72 36 -79 36 -191 l0 -116 -43 -86 c-51 -99 -154 -207 -239 -251 -46
-23 -182 -60 -191 -51 -2 1 21 17 49 35 66 40 147 124 181 187 15 27 37 84 49
128 29 108 24 276 -13 380 -36 99 -83 194 -129 254 -21 28 -39 54 -39 57 0 9
35 -14 116 -80z m-6654 22 c40 -31 78 -79 78 -97 0 -27 -37 -30 -87 -7 -74 35
-114 101 -81 134 16 16 44 6 90 -30z m6787 25 c21 -3 105 -90 87 -90 -8 0 -15
3 -14 6 2 19 -4 24 -12 11 -8 -12 -10 -10 -10 8 0 15 -4 21 -12 16 -7 -5 -8
-3 -3 6 5 8 3 11 -6 8 -19 -7 -46 8 -60 33 -9 17 -8 20 3 13 7 -5 19 -9 27
-11z m-6982 -133 c54 -27 116 -54 138 -58 23 -5 39 -14 37 -21 -1 -7 2 -10 7
-7 29 18 70 -128 51 -180 l-10 -26 -30 41 c-37 50 -111 89 -250 131 -138 41
-183 38 -237 -12 l-23 -21 0 42 c0 104 91 190 181 170 21 -5 83 -31 136 -59z
m4065 -18 c-25 -34 -62 -67 -47 -42 19 33 58 80 62 76 3 -3 -4 -18 -15 -34z
m3129 -65 c33 -63 78 -267 59 -267 -5 0 -10 18 -10 39 0 46 -41 183 -76 256
-27 56 -4 32 27 -28z m-7281 -51 c186 -52 223 -75 297 -189 24 -37 61 -87 82
-110 52 -57 67 -87 50 -98 -25 -16 -55 -9 -80 17 -20 21 -24 36 -23 81 0 49
-1 53 -14 36 -22 -30 -9 -90 29 -129 l33 -34 -31 0 c-58 0 -86 19 -135 89 -55
81 -75 92 -226 122 -107 21 -115 21 -148 5 -19 -9 -57 -36 -83 -61 -47 -44
-49 -45 -55 -23 -11 42 -6 63 32 148 53 118 59 129 95 150 42 26 74 25 177 -4z
m562 -198 c19 -29 40 -64 47 -78 22 -43 -32 26 -63 82 -36 63 -28 61 16 -4z
m103 -173 c16 -27 24 -45 18 -40 -6 6 -23 33 -38 60 -16 28 -24 46 -18 40 6
-5 23 -32 38 -60z m45 -75 c6 -11 8 -20 6 -20 -3 0 -10 9 -16 20 -6 11 -8 20
-6 20 3 0 10 -9 16 -20z m5660 -1030 c118 -61 299 -51 439 26 35 19 65 33 68
30 9 -9 -27 -64 -63 -96 -64 -55 -118 -74 -214 -74 -101 0 -151 13 -216 57
-47 31 -114 108 -114 130 0 6 17 -5 38 -25 20 -20 48 -41 62 -48z m-243 -72
c-3 -7 -5 -2 -5 12 0 14 2 19 5 13 2 -7 2 -19 0 -25z m-4909 -289 c146 -49
252 -221 252 -408 0 -41 5 -67 15 -78 28 -32 107 -156 121 -190 19 -45 17
-158 -4 -219 -94 -270 -380 -503 -711 -580 -129 -30 -324 -14 -420 35 -101 52
-141 113 -176 271 -29 132 -28 123 -13 114 7 -4 2 8 -10 27 -72 115 -92 177
-92 295 0 95 34 225 81 314 29 54 149 214 155 207 2 -2 13 -115 24 -253 11
-137 23 -278 26 -313 l7 -63 -24 7 c-46 14 -77 35 -103 67 -14 18 -26 27 -26
21 0 -7 16 -31 35 -52 24 -26 31 -41 23 -43 -27 -9 70 -32 129 -31 88 2 172
26 291 83 234 112 387 250 467 421 18 40 25 69 24 114 l-2 60 -9 -63 c-6 -35
-12 -61 -15 -58 -10 9 -83 180 -83 192 0 7 -11 36 -25 66 -41 87 -37 91 63 57z
m6632 -555 c12 -22 12 -27 0 -34 -12 -8 -12 -10 3 -10 10 0 21 -10 26 -22 5
-13 20 -40 35 -60 14 -21 22 -39 18 -42 -4 -2 -81 -25 -172 -50 -446 -127
-1066 -355 -1365 -503 -137 -68 -355 -186 -406 -220 -37 -24 -37 -24 -100 -8
-35 9 -79 23 -96 30 -32 14 -33 16 -35 77 -1 51 -2 54 -5 18 -6 -83 -8 -86
-90 -125 -46 -22 -92 -37 -113 -37 -19 0 -84 19 -145 42 -209 80 -511 171
-866 260 -380 95 -583 137 -959 195 -129 20 -238 39 -242 41 -9 6 39 134 59
156 8 9 24 18 34 20 19 3 19 3 0 15 -17 11 -25 7 -58 -25 -22 -20 -35 -34 -29
-29 18 13 29 7 16 -8 -7 -9 -21 -39 -30 -68 -16 -50 -18 -52 -51 -49 -19 1
-39 -1 -45 -5 -6 -5 -35 -46 -65 -93 -29 -47 -85 -129 -124 -184 -38 -54 -107
-151 -153 -215 -46 -64 -103 -146 -129 -183 -25 -38 -48 -68 -50 -68 -2 0 10
26 28 58 18 31 36 64 39 72 20 45 41 75 50 72 7 -1 9 2 5 8 -15 24 337 522
421 595 6 6 15 17 20 27 5 9 49 58 99 109 89 93 90 94 150 101 118 15 784 21
925 9 473 -42 801 -157 1047 -369 76 -65 135 -144 195 -261 21 -41 38 -67 38
-58 0 8 -12 38 -27 66 l-26 52 29 32 c17 18 43 50 59 72 41 59 77 95 87 89 4
-3 3 -15 -2 -27 -9 -18 -7 -18 7 3 202 280 547 443 1068 505 219 26 594 51
791 54 120 1 121 1 134 -25z m-2910 -123 c-5 -11 -10 -29 -10 -40 0 -12 -4
-21 -10 -21 -15 0 -12 33 6 58 19 27 28 29 14 3z m1860 -455 c0 -6 -212 -97
-217 -93 -4 4 194 95 210 96 4 1 7 -1 7 -3z m-482 -556 c27 -17 32 -25 27 -43
-8 -26 -75 -98 -85 -92 -9 6 -69 -84 -109 -162 -17 -34 -38 -92 -47 -129 -25
-100 -43 -130 -139 -224 -48 -47 -105 -111 -126 -142 -41 -60 -40 -77 1 -33
23 24 47 35 35 15 -3 -5 -4 -10 -2 -10 3 0 19 22 37 49 48 76 56 79 76 34 12
-26 18 -66 18 -123 1 -75 -3 -93 -30 -150 -53 -113 -183 -203 -310 -216 -127
-13 -269 38 -359 131 -30 30 -60 65 -66 77 -10 19 -9 20 7 14 11 -4 71 -9 134
-12 l115 -3 -70 13 c-38 8 -88 19 -111 25 -22 6 -84 15 -139 21 -54 6 -146 19
-204 30 -58 11 -131 24 -161 30 -48 9 -261 89 -323 122 -40 21 -78 58 -133
129 -43 55 -53 74 -44 84 7 8 9 23 5 34 -9 29 -84 91 -109 91 -16 0 -11 -6 18
-23 42 -24 84 -72 73 -83 -10 -11 -47 9 -95 51 -33 29 -40 40 -30 47 10 8 10
11 0 15 -6 2 -10 9 -6 14 7 12 55 11 74 -1 11 -7 11 -10 2 -10 -24 0 -2 -18
31 -25 17 -4 45 -17 61 -28 29 -20 29 -20 22 -1 -7 18 -6 18 11 1 10 -10 59
-68 108 -129 l90 -112 135 -73 c148 -80 135 -58 -17 28 -97 55 -134 92 -220
219 -17 25 -52 69 -78 98 -26 28 -41 52 -34 52 19 0 49 31 49 52 0 33 -66 94
-117 109 -27 7 -52 12 -58 11 -5 -1 -1 5 9 13 21 16 79 19 111 5 19 -8 19 -9
1 -9 -12 -1 0 -11 30 -27 67 -35 102 -70 202 -204 137 -182 187 -227 325 -293
65 -32 120 -57 123 -57 19 0 -22 27 -119 77 -127 66 -174 108 -262 233 -33 47
-84 113 -113 148 -50 59 -51 62 -28 62 23 0 55 35 43 47 -3 2 -8 -5 -12 -16
-3 -12 -15 -21 -25 -21 -24 0 -143 98 -134 111 3 5 2 9 -3 8 -4 -1 -15 -1 -23
0 -32 3 15 21 55 21 46 0 88 -24 116 -66 10 -16 19 -24 19 -18 0 19 -40 63
-70 79 -16 8 -51 15 -77 15 l-48 1 24 19 c30 26 102 26 156 1 61 -28 111 -73
263 -237 89 -96 151 -154 167 -158 15 -4 68 -25 118 -48 68 -30 107 -55 152
-98 122 -116 156 -122 42 -7 -79 80 -98 106 -202 267 -26 41 -66 97 -89 124
-28 34 -34 46 -19 38 31 -17 58 -15 77 7 45 50 -53 151 -146 151 -25 0 -29 3
-18 10 8 5 38 10 66 10 102 0 167 -46 302 -212 111 -138 173 -188 302 -243 92
-39 90 -39 90 -24 0 6 -18 18 -40 26 l-40 16 78 34 c42 19 96 43 119 53 40 18
60 16 45 -5 -4 -6 -24 -18 -46 -28 -46 -21 -43 -32 5 -15 41 14 106 57 135 89
28 33 94 145 99 168 17 90 161 201 260 201 23 0 54 -9 73 -20z m-1368 -86 c64
-26 108 -111 65 -128 -35 -13 -125 52 -143 104 -15 43 11 51 78 24z m-647
-175 c40 -20 77 -62 77 -86 0 -31 -24 -39 -55 -19 -45 29 -107 95 -100 105 8
14 51 14 78 0z m2013 -237 c36 -97 54 -201 54 -317 0 -168 -39 -292 -135 -435
-20 -30 -45 -71 -55 -90 -23 -46 -124 -142 -178 -169 -23 -12 -79 -26 -125
-32 -45 -6 -107 -17 -137 -25 -81 -21 -156 -17 -238 10 -180 62 -318 169 -407
316 -51 85 -94 195 -95 241 l0 26 63 -13 c34 -8 76 -14 92 -14 27 0 34 -7 65
-67 88 -168 221 -286 339 -300 39 -4 56 -1 97 21 27 15 41 25 32 22 -10 -3
-18 -1 -18 5 0 6 -4 7 -10 4 -6 -4 -7 1 -3 10 3 10 0 21 -8 26 -10 6 -5 9 17
9 73 0 207 65 276 133 18 18 29 27 25 21 -4 -7 -1 -26 6 -43 l13 -31 17 52
c32 104 48 231 43 353 -2 65 -9 122 -15 128 -7 7 2 24 29 54 21 25 45 63 53
86 12 39 17 43 78 64 91 31 97 29 125 -45z m-915 -726 c30 -14 80 -30 109 -36
55 -10 77 -20 46 -20 -14 0 -17 -5 -13 -21 5 -18 2 -20 -26 -17 -18 1 -38 8
-45 15 -8 7 -18 10 -24 7 -6 -4 -9 -3 -5 2 3 5 -12 17 -33 28 -21 10 -62 43
-91 74 -47 48 -49 51 -14 24 22 -17 65 -42 96 -56z"/>
<path d="M5880 13025 c-142 -29 -296 -101 -353 -164 -53 -58 -106 -181 -78
-181 5 0 89 41 187 90 273 138 397 169 539 136 77 -19 178 -70 239 -122 22
-19 41 -32 44 -29 7 6 -73 99 -124 144 -89 78 -248 142 -349 140 -22 -1 -69
-7 -105 -14z"/>
<path d="M5888 12643 c7 -3 16 -2 19 1 4 3 -2 6 -13 5 -11 0 -14 -3 -6 -6z"/>
<path d="M5780 12620 c-18 -12 -2 -12 25 0 13 6 15 9 5 9 -8 0 -22 -4 -30 -9z"/>
<path d="M4430 12570 c8 -5 20 -10 25 -10 6 0 3 5 -5 10 -8 5 -19 10 -25 10
-5 0 -3 -5 5 -10z"/>
<path d="M7054 12191 c-38 -23 -106 -108 -158 -199 -35 -60 -40 -76 -46 -159
-6 -87 -8 -94 -47 -145 -45 -59 -57 -87 -47 -112 9 -23 31 -19 104 19 69 36
76 45 17 20 -40 -16 -87 -20 -87 -6 0 10 30 50 78 105 34 38 34 39 27 112 -6
66 -4 79 21 133 15 34 32 61 39 61 19 0 70 28 90 50 18 19 18 22 2 38 -16 16
-19 15 -43 -13 -16 -19 -21 -22 -15 -9 16 33 79 84 105 84 19 0 26 -10 45 -73
19 -58 23 -90 20 -159 -5 -99 3 -95 27 12 15 65 15 85 5 150 -7 41 -20 83 -28
93 -21 22 -70 22 -109 -2z m125 -131 c0 -9 -4 -8 -9 5 -5 11 -9 27 -9 35 0 9
4 8 9 -5 5 -11 9 -27 9 -35z"/>
<path d="M4100 11446 c0 -2 9 -6 20 -9 11 -3 20 -1 20 4 0 5 -9 9 -20 9 -11 0
-20 -2 -20 -4z"/>
<path d="M4150 11436 c0 -2 11 -6 25 -8 14 -3 25 -1 25 3 0 5 -11 9 -25 9 -14
0 -25 -2 -25 -4z"/>
<path d="M4843 11405 c0 -22 2 -30 4 -17 2 12 2 30 0 40 -3 9 -5 -1 -4 -23z"/>
<path d="M5244 11375 c-16 -7 -38 -24 -47 -39 -21 -31 -18 -32 25 -6 18 11 48
20 66 20 21 0 32 4 30 12 -7 20 -43 26 -74 13z"/>
<path d="M4907 11373 c-11 -10 -8 -23 6 -23 6 0 33 -11 59 -25 53 -28 58 -29
58 -15 0 5 -19 23 -42 40 -40 29 -68 37 -81 23z"/>
<path d="M5701 11176 c-7 -9 -37 -27 -66 -41 -62 -29 -122 -32 -286 -14 -86 9
-109 9 -159 -5 -50 -14 -69 -15 -124 -5 -54 10 -81 9 -172 -5 -59 -10 -124
-15 -145 -12 -57 9 -109 37 -109 58 0 24 -12 23 -38 -5 -32 -34 -29 -58 6 -51
44 8 112 -33 150 -91 18 -27 37 -49 42 -48 6 2 10 -2 10 -8 0 -5 5 -7 10 -4 6
3 10 0 10 -9 0 -8 8 -13 18 -12 9 2 40 -7 68 -19 83 -36 162 -56 238 -60 63
-3 79 1 141 30 39 18 87 38 108 45 20 6 37 16 37 21 0 5 3 8 8 7 4 -1 24 1 45
6 39 7 69 33 110 96 12 19 44 47 70 61 66 36 75 46 56 65 -14 13 -17 13 -28 0z
m-404 -66 c7 0 12 -10 10 -22 -2 -22 1 -24 46 -27 18 -1 19 -3 7 -11 -8 -5
-50 -7 -92 -3 -51 3 -78 2 -78 -5 0 -10 -27 -23 -60 -28 -13 -3 -97 16 -150
33 -32 10 -76 41 -69 48 14 14 105 17 155 5 47 -11 63 -11 117 2 34 9 71 14
82 12 11 -2 26 -4 32 -4z m173 -101 c-96 -86 -207 -123 -345 -117 -82 3 -101
8 -166 41 -41 20 -87 48 -104 62 l-30 26 40 -6 c168 -25 284 -34 316 -25 18 6
72 15 119 21 47 5 108 16 135 24 78 21 83 17 35 -26z"/>
<path d="M4852 10844 c122 -171 297 -217 486 -127 53 25 159 119 148 130 -3 3
-27 -17 -53 -45 -70 -74 -145 -107 -248 -106 -105 0 -178 23 -234 74 -24 21
-47 37 -51 35 -4 -2 -22 16 -39 40 -18 25 -34 45 -37 45 -3 0 10 -21 28 -46z"/>
<path d="M3620 11576 c0 -2 7 -7 16 -10 8 -3 12 -2 9 4 -6 10 -25 14 -25 6z"/>
<path d="M4520 9690 c-9 -6 -10 -10 -3 -10 6 0 15 5 18 10 8 12 4 12 -15 0z"/>
<path d="M5630 9177 c-78 -74 -71 -74 15 1 42 37 74 73 63 72 -2 -1 -37 -33
-78 -73z"/>
<path d="M5239 9143 c-13 -16 -12 -17 4 -4 9 7 17 15 17 17 0 8 -8 3 -21 -13z"/>
<path d="M5405 9020 c-3 -6 1 -7 9 -4 18 7 21 14 7 14 -6 0 -13 -4 -16 -10z"/>
<path d="M5355 8993 c-16 -9 -70 -31 -120 -49 -100 -36 -102 -46 -3 -13 66 23
158 66 158 74 0 7 -1 6 -35 -12z"/>
<path d="M5108 8903 c6 -2 18 -2 25 0 6 3 1 5 -13 5 -14 0 -19 -2 -12 -5z"/>
<path d="M5090 8881 c0 -6 4 -13 10 -16 6 -3 7 1 4 9 -7 18 -14 21 -14 7z"/>
<path d="M4988 8853 c-26 -29 -30 -60 -14 -91 17 -33 35 -42 74 -41 25 1 25 2
-5 9 -18 4 -40 13 -48 20 -20 16 -19 69 1 98 18 26 13 29 -8 5z"/>
<path d="M5101 8750 c-13 -11 -19 -20 -14 -20 6 0 18 9 28 20 23 25 17 25 -14
0z"/>
<path d="M4514 9950 c-15 -22 -25 -42 -23 -45 3 -2 17 16 32 40 33 56 27 59
-9 5z"/>
<path d="M3046 9431 c-4 -7 -5 -15 -2 -18 9 -9 19 4 14 18 -4 11 -6 11 -12 0z"/>
<path d="M3906 9150 c-44 -22 -84 -52 -141 -105 l-40 -37 39 28 c145 103 183
119 241 103 19 -6 42 -21 51 -33 8 -13 31 -93 50 -177 24 -101 46 -172 66
-208 34 -62 128 -184 136 -177 2 3 -22 45 -55 93 -33 48 -66 99 -72 112 -18
33 -50 152 -66 243 -8 42 -21 90 -29 107 -36 69 -104 89 -180 51z"/>
<path d="M7477 8993 l-17 -38 20 24 c11 13 20 29 20 37 0 22 -5 17 -23 -23z"/>
<path d="M7422 8895 c-17 -37 -14 -45 4 -12 9 16 14 31 11 33 -2 2 -9 -7 -15
-21z"/>
<path d="M7373 8787 c-51 -101 -115 -248 -110 -253 2 -2 37 66 76 152 72 155
94 220 34 101z"/>
<path d="M3171 8674 c0 -11 3 -14 6 -6 3 7 2 16 -1 19 -3 4 -6 -2 -5 -13z"/>
<path d="M5787 8634 c-50 -46 -43 -65 7 -22 22 19 37 39 35 45 -2 7 -20 -3
-42 -23z"/>
<path d="M4330 8507 c0 -2 14 -16 32 -33 l31 -29 -23 33 c-20 27 -40 42 -40
29z"/>
<path d="M7185 8393 c-52 -107 -80 -171 -71 -162 11 10 127 252 123 256 -2 2
-26 -40 -52 -94z"/>
<path d="M3156 8417 c3 -10 9 -15 12 -12 3 3 0 11 -7 18 -10 9 -11 8 -5 -6z"/>
<path d="M4434 8388 c21 -27 40 -48 43 -48 9 0 -18 37 -48 65 -31 29 -31 28 5
-17z"/>
<path d="M5234 8194 c-18 -14 -18 -15 4 -4 12 6 22 13 22 15 0 8 -5 6 -26 -11z"/>
<path d="M4609 8181 c6 -10 7 -21 4 -25 -3 -3 -1 -6 6 -6 7 0 9 -5 5 -12 -4
-7 -3 -8 4 -4 6 3 16 -3 22 -15 7 -11 14 -18 17 -15 3 2 -10 25 -28 50 -34 48
-47 60 -30 27z"/>
<path d="M5149 8123 l-24 -28 28 24 c15 14 27 26 27 28 0 8 -8 1 -31 -24z"/>
<path d="M4921 7770 c0 -8 4 -24 9 -35 5 -13 9 -14 9 -5 0 8 -4 24 -9 35 -5
13 -9 14 -9 5z"/>
<path d="M4745 7669 c-4 -6 -5 -12 -2 -15 2 -3 7 2 10 11 7 17 1 20 -8 4z"/>
<path d="M4933 7601 c-7 -47 -11 -86 -9 -88 7 -7 28 113 24 142 -2 19 -8 -2
-15 -54z"/>
<path d="M4871 7634 c0 -11 3 -14 6 -6 3 7 2 16 -1 19 -3 4 -6 -2 -5 -13z"/>
<path d="M4740 7607 c0 -9 10 -22 23 -28 l22 -12 -20 24 c-11 13 -21 26 -22
28 -2 2 -3 -3 -3 -12z"/>
<path d="M4911 7484 c0 -11 3 -14 6 -6 3 7 2 16 -1 19 -3 4 -6 -2 -5 -13z"/>
<path d="M4882 7330 c0 -14 2 -19 5 -12 2 6 2 18 0 25 -3 6 -5 1 -5 -13z"/>
<path d="M4872 7275 c0 -16 2 -22 5 -12 2 9 2 23 0 30 -3 6 -5 -1 -5 -18z"/>
<path d="M4776 6733 c8 -61 -4 -82 -45 -84 -24 -2 -25 -2 -3 -6 36 -7 62 23
62 71 0 23 -5 48 -10 56 -7 10 -9 -1 -4 -37z"/>
<path d="M4670 6724 c0 -22 7 -49 16 -60 15 -19 15 -19 5 2 -5 11 -9 35 -9 52
1 18 -2 35 -5 39 -4 3 -7 -12 -7 -33z"/>
<path d="M4851 6654 c0 -11 3 -14 6 -6 3 7 2 16 -1 19 -3 4 -6 -2 -5 -13z"/>
<path d="M3347 6125 c3 -33 7 -62 9 -64 8 -9 2 85 -6 104 -5 12 -6 -4 -3 -40z"/>
<path d="M2061 8714 c0 -11 3 -14 6 -6 3 7 2 16 -1 19 -3 4 -6 -2 -5 -13z"/>
<path d="M2070 8602 c0 -5 9 -17 21 -28 21 -19 21 -19 8 9 -12 26 -29 37 -29
19z"/>
<path d="M2222 8165 c-13 -27 -86 -85 -111 -86 -9 0 -11 -3 -4 -5 26 -11 133
74 133 106 0 16 -6 11 -18 -15z"/>
<path d="M2066 6755 c-3 -8 -1 -15 4 -15 6 0 10 7 10 15 0 8 -2 15 -4 15 -2 0
-6 -7 -10 -15z"/>
<path d="M5603 6573 c9 -2 25 -2 35 0 9 3 1 5 -18 5 -19 0 -27 -2 -17 -5z"/>
<path d="M5733 6563 c9 -2 23 -2 30 0 6 3 -1 5 -18 5 -16 0 -22 -2 -12 -5z"/>
<path d="M5998 6533 c6 -2 18 -2 25 0 6 3 1 5 -13 5 -14 0 -19 -2 -12 -5z"/>
<path d="M4939 6503 c-13 -16 -12 -17 4 -4 9 7 17 15 17 17 0 8 -8 3 -21 -13z"/>
<path d="M6138 6513 c6 -2 18 -2 25 0 6 3 1 5 -13 5 -14 0 -19 -2 -12 -5z"/>
<path d="M7774 6304 l-39 -35 43 32 c38 30 48 39 39 39 -2 0 -21 -16 -43 -36z"/>
<path d="M7609 6152 c-53 -59 -61 -75 -14 -30 27 26 47 50 44 53 -3 2 -17 -8
-30 -23z"/>
<path d="M7482 6108 c-30 -82 -35 -108 -9 -53 24 51 41 105 33 105 -3 0 -13
-24 -24 -52z"/>
<path d="M7510 6023 c-17 -26 -30 -51 -30 -57 0 -12 0 -12 38 52 39 65 33 69
-8 5z"/>
<path d="M7240 5986 c0 -2 8 -10 18 -17 15 -13 16 -12 3 4 -13 16 -21 21 -21
13z"/>
<path d="M7933 5628 c-31 -35 -40 -56 -14 -33 21 18 46 55 38 55 -2 0 -13 -10
-24 -22z"/>
<path d="M7310 5223 c0 -5 25 -13 55 -19 58 -10 69 -9 33 5 -41 15 -88 23 -88
14z"/>
<path d="M7589 4453 c-33 -78 -33 -80 -21 -68 12 12 54 116 49 121 -2 2 -14
-22 -28 -53z"/>
<path d="M7792 4405 c-17 -37 -14 -45 4 -12 9 16 14 31 11 33 -2 2 -9 -7 -15
-21z"/>
<path d="M7365 4331 c-62 -4 -82 -8 -65 -13 41 -12 123 -8 150 7 14 8 21 14
15 13 -5 -1 -50 -4 -100 -7z"/>
<path d="M7158 4433 c7 -3 16 -2 19 1 4 3 -2 6 -13 5 -11 0 -14 -3 -6 -6z"/>
</g>
</svg>
